<svg width="28" height="28" viewBox="0 0 28 28" fill="none" xmlns="http://www.w3.org/2000/svg">
<path fill-rule="evenodd" clip-rule="evenodd" d="M1.75001 14C1.75001 13.7679 1.84219 13.5454 2.00629 13.3813C2.17038 13.2172 2.39294 13.125 2.62501 13.125H23.2628L17.7555 7.61951C17.6742 7.53815 17.6096 7.44157 17.5656 7.33528C17.5216 7.22898 17.4989 7.11506 17.4989 7.00001C17.4989 6.88495 17.5216 6.77103 17.5656 6.66474C17.6096 6.55844 17.6742 6.46186 17.7555 6.38051C17.8369 6.29915 17.9334 6.23462 18.0397 6.19059C18.146 6.14656 18.26 6.1239 18.375 6.1239C18.4901 6.1239 18.604 6.14656 18.7103 6.19059C18.8166 6.23462 18.9132 6.29915 18.9945 6.38051L25.9945 13.3805C26.076 13.4618 26.1406 13.5583 26.1848 13.6646C26.2289 13.771 26.2516 13.8849 26.2516 14C26.2516 14.1151 26.2289 14.2291 26.1848 14.3354C26.1406 14.4417 26.076 14.5382 25.9945 14.6195L18.9945 21.6195C18.9132 21.7009 18.8166 21.7654 18.7103 21.8094C18.604 21.8535 18.4901 21.8761 18.375 21.8761C18.26 21.8761 18.146 21.8535 18.0397 21.8094C17.9334 21.7654 17.8369 21.7009 17.7555 21.6195C17.6742 21.5382 17.6096 21.4416 17.5656 21.3353C17.5216 21.229 17.4989 21.1151 17.4989 21C17.4989 20.885 17.5216 20.771 17.5656 20.6647C17.6096 20.5584 17.6742 20.4619 17.7555 20.3805L23.2628 14.875H2.62501C2.39294 14.875 2.17038 14.7828 2.00629 14.6187C1.84219 14.4546 1.75001 14.2321 1.75001 14Z" fill="white"/>
</svg>
